<svg width="33" height="18" viewBox="0 0 33 18" fill="none" xmlns="http://www.w3.org/2000/svg">
<path d="M0.145813 8.62012C0.145813 6.99012 0.521813 5.52998 1.27381 4.22998C2.04181 2.93998 3.07381 1.92996 4.36981 1.20996C5.68181 0.469961 7.11381 0.100098 8.66581 0.100098C10.4418 0.100098 12.0178 0.539922 13.3938 1.41992C14.7858 2.28992 15.7938 3.52012 16.4178 5.12012H13.1298C12.6978 4.24012 12.0978 3.5799 11.3298 3.1499C10.5618 2.7199 9.67381 2.5 8.66581 2.5C7.56181 2.5 6.57781 2.75 5.71381 3.25C4.84981 3.74 4.16981 4.45988 3.67381 5.37988C3.19381 6.30988 2.95381 7.39012 2.95381 8.62012C2.95381 9.86012 3.19381 10.9399 3.67381 11.8599C4.16981 12.7899 4.84981 13.51 5.71381 14.02C6.57781 14.52 7.56181 14.77 8.66581 14.77C9.67381 14.77 10.5618 14.5501 11.3298 14.1201C12.0978 13.6901 12.6978 13.0299 13.1298 12.1499H16.4178C15.7938 13.7499 14.7858 14.9801 13.3938 15.8501C12.0178 16.7101 10.4418 17.1401 8.66581 17.1401C7.09781 17.1401 5.66581 16.7801 4.36981 16.0601C3.07381 15.3301 2.04181 14.31 1.27381 13.02C0.521813 11.72 0.145813 10.2601 0.145813 8.62012ZM32.9403 0.319824V17H30.2043V9.7002H22.3563V17H19.6203V0.319824H22.3563V7.47021H30.2043V0.319824H32.9403Z" fill="#F5F5F5"/>
</svg>
