<svg width="30" height="30" viewBox="0 0 30 30" fill="none" xmlns="http://www.w3.org/2000/svg">
<path d="M14 7.5V14.5" stroke="#F5F5F5" stroke-width="1.5" stroke-linecap="round" stroke-linejoin="round"/>
<path d="M20 18.5L14 14.5" stroke="#F5F5F5" stroke-width="1.5" stroke-linecap="round" stroke-linejoin="round"/>
<path d="M23 10.5H29V4.5" stroke="#F5F5F5" stroke-width="1.5" stroke-linecap="round" stroke-linejoin="round"/>
<path d="M24 24.5C22.13 26.39 19.6 27.98 17 28.5C14.4 29.02 11.44 28.52 9 27.5C6.56 26.48 4.47 24.72 3 22.5C1.53 20.28 1 18.17 1 15.5C1 12.83 1.53 9.71999 3 7.49999C4.47 5.27999 6.56 3.51999 9 2.49999C11.44 1.47999 14.4 0.979987 17 1.49999C19.6 2.01999 22.13 3.60999 24 5.49999L29 10.5" stroke="#F5F5F5" stroke-width="1.5" stroke-linecap="round" stroke-linejoin="round"/>
</svg>
