<svg width="36" height="36" viewBox="0 0 36 36" fill="none" xmlns="http://www.w3.org/2000/svg">
<circle cx="18" cy="18" r="17.3828" stroke="#F5F5F5" stroke-width="1.2343"/>
<path d="M18.0921 15.7796C16.8089 15.7796 15.7686 16.8199 15.7686 18.1032C15.7686 19.3865 16.8089 20.4268 18.0921 20.4268C19.3754 20.4268 20.4157 19.3865 20.4157 18.1032C20.4157 16.8199 19.3754 15.7796 18.0921 15.7796Z" fill="#F5F5F5"/>
<path fill-rule="evenodd" clip-rule="evenodd" d="M14.3526 11.7269C16.8179 11.4514 19.3664 11.4514 21.8317 11.7269C23.1889 11.8786 24.2837 12.948 24.443 14.31C24.7377 16.8302 24.7377 19.3762 24.443 21.8964C24.2837 23.2584 23.1889 24.3278 21.8317 24.4795C19.3664 24.755 16.8179 24.755 14.3526 24.4795C12.9954 24.3278 11.9006 23.2584 11.7413 21.8964C11.4466 19.3762 11.4466 16.8302 11.7413 14.31C11.9006 12.948 12.9954 11.8786 14.3526 11.7269ZM21.6669 13.8135C21.272 13.8135 20.9519 14.1336 20.9519 14.5285C20.9519 14.9233 21.272 15.2434 21.6669 15.2434C22.0617 15.2434 22.3818 14.9233 22.3818 14.5285C22.3818 14.1336 22.0617 13.8135 21.6669 13.8135ZM14.6961 18.1032C14.6961 16.2276 16.2166 14.7072 18.0921 14.7072C19.9677 14.7072 21.4882 16.2276 21.4882 18.1032C21.4882 19.9788 19.9677 21.4992 18.0921 21.4992C16.2166 21.4992 14.6961 19.9788 14.6961 18.1032Z" fill="#F5F5F5"/>
</svg>
