<svg width="64" height="64" viewBox="0 0 64 64" fill="none" xmlns="http://www.w3.org/2000/svg">
<circle cx="32" cy="32" r="30.9028" stroke="#F5F5F5" stroke-width="2.19432"/>
<path d="M32.1638 28.0527C29.8824 28.0527 28.033 29.9021 28.033 32.1835C28.033 34.4649 29.8824 36.3143 32.1638 36.3143C34.4452 36.3143 36.2946 34.4649 36.2946 32.1835C36.2946 29.9021 34.4452 28.0527 32.1638 28.0527Z" fill="#F5F5F5"/>
<path fill-rule="evenodd" clip-rule="evenodd" d="M25.5158 20.8478C29.8984 20.358 34.4292 20.358 38.8119 20.8478C41.2248 21.1175 43.1709 23.0187 43.4542 25.44C43.9782 29.9204 43.9782 34.4466 43.4542 38.9269C43.1709 41.3483 41.2248 43.2495 38.8119 43.5191C34.4292 44.009 29.8984 44.009 25.5158 43.5191C23.1029 43.2495 21.1567 41.3483 20.8735 38.9269C20.3495 34.4466 20.3495 29.9204 20.8735 25.44C21.1567 23.0187 23.1029 21.1175 25.5158 20.8478ZM38.5189 24.5574C37.8169 24.5574 37.2479 25.1264 37.2479 25.8284C37.2479 26.5303 37.8169 27.0994 38.5189 27.0994C39.2209 27.0994 39.7899 26.5303 39.7899 25.8284C39.7899 25.1264 39.2209 24.5574 38.5189 24.5574ZM26.1264 32.1835C26.1264 28.8491 28.8295 26.1461 32.1638 26.1461C35.4981 26.1461 38.2012 28.8491 38.2012 32.1835C38.2012 35.5178 35.4981 38.2208 32.1638 38.2208C28.8295 38.2208 26.1264 35.5178 26.1264 32.1835Z" fill="#F5F5F5"/>
</svg>
