<svg width="1920" height="1552" viewBox="0 0 1920 1552" fill="none" xmlns="http://www.w3.org/2000/svg">
<path d="M1920 131.873H0V1552H1920V131.873Z" fill="#E5DCD3"/>
<path fill-rule="evenodd" clip-rule="evenodd" d="M1951 37.6193C1951 16.844 1933.09 0 1911 0H1026C1003.91 0 986 16.844 986 37.6193V93.1077C986 113.883 1003.91 130.727 1026 130.727H1645C1678.14 130.727 1705 155.988 1705 187.156V193.739C1705 214.514 1687.09 231.358 1665 231.358H1026C1003.91 231.358 986 248.202 986 268.978V1082.49C986 1103.27 1003.91 1120.11 1026 1120.11H1911C1933.09 1120.11 1951 1103.27 1951 1082.49V37.6193Z" fill="#935831"/>
</svg>
