<svg width="33" height="18" viewBox="0 0 33 18" fill="none" xmlns="http://www.w3.org/2000/svg">
<path d="M0.145813 8.624C0.145813 6.992 0.521813 5.528 1.27381 4.232C2.04181 2.936 3.07381 1.928 4.36981 1.208C5.68181 0.472004 7.11381 0.104004 8.66581 0.104004C10.4418 0.104004 12.0178 0.544004 13.3938 1.424C14.7858 2.288 15.7938 3.52 16.4178 5.12H13.1298C12.6978 4.24 12.0978 3.584 11.3298 3.152C10.5618 2.72 9.67381 2.504 8.66581 2.504C7.56181 2.504 6.57781 2.752 5.71381 3.248C4.84981 3.744 4.16981 4.456 3.67381 5.384C3.19381 6.312 2.95381 7.392 2.95381 8.624C2.95381 9.856 3.19381 10.936 3.67381 11.864C4.16981 12.792 4.84981 13.512 5.71381 14.024C6.57781 14.52 7.56181 14.768 8.66581 14.768C9.67381 14.768 10.5618 14.552 11.3298 14.12C12.0978 13.688 12.6978 13.032 13.1298 12.152H16.4178C15.7938 13.752 14.7858 14.984 13.3938 15.848C12.0178 16.712 10.4418 17.144 8.66581 17.144C7.09781 17.144 5.66581 16.784 4.36981 16.064C3.07381 15.328 2.04181 14.312 1.27381 13.016C0.521813 11.72 0.145813 10.256 0.145813 8.624ZM32.9403 0.320004V17H30.2043V9.704H22.3563V17H19.6203V0.320004H22.3563V7.472H30.2043V0.320004H32.9403Z" fill="white"/>
</svg>
