<svg width="69" height="20" viewBox="0 0 69 20" fill="none" xmlns="http://www.w3.org/2000/svg">
<path d="M64 7H50" stroke="#F5F5F5" stroke-width="2" stroke-linecap="round" stroke-linejoin="round"/>
<path d="M68 1H50" stroke="#F5F5F5" stroke-width="2" stroke-linecap="round" stroke-linejoin="round"/>
<path d="M68 13H50" stroke="#F5F5F5" stroke-width="2" stroke-linecap="round" stroke-linejoin="round"/>
<path d="M64 19H50" stroke="#F5F5F5" stroke-width="2" stroke-linecap="round" stroke-linejoin="round"/>
<path d="M0.145996 9.624C0.145996 7.992 0.521987 6.528 1.27399 5.232C2.04199 3.936 3.074 2.928 4.37 2.208C5.682 1.472 7.11399 1.104 8.66599 1.104C10.442 1.104 12.018 1.544 13.394 2.424C14.786 3.288 15.794 4.52 16.418 6.12H13.13C12.698 5.24 12.098 4.584 11.33 4.152C10.562 3.72 9.67399 3.504 8.66599 3.504C7.56199 3.504 6.57799 3.752 5.71399 4.248C4.84999 4.744 4.17001 5.456 3.67401 6.384C3.19401 7.312 2.95401 8.392 2.95401 9.624C2.95401 10.856 3.19401 11.936 3.67401 12.864C4.17001 13.792 4.84999 14.512 5.71399 15.024C6.57799 15.52 7.56199 15.768 8.66599 15.768C9.67399 15.768 10.562 15.552 11.33 15.12C12.098 14.688 12.698 14.032 13.13 13.152H16.418C15.794 14.752 14.786 15.984 13.394 16.848C12.018 17.712 10.442 18.144 8.66599 18.144C7.09799 18.144 5.666 17.784 4.37 17.064C3.074 16.328 2.04199 15.312 1.27399 14.016C0.521987 12.72 0.145996 11.256 0.145996 9.624ZM32.94 1.32V18H30.204V10.704H22.356V18H19.62V1.32H22.356V8.472H30.204V1.32H32.94Z" fill="#F5F5F5"/>
</svg>
